<svg width="18" height="19" viewBox="0 0 18 19" fill="none" xmlns="http://www.w3.org/2000/svg">
    <path d="M9.99441 9.50004L17.794 1.26703C18.0687 0.977173 18.0687 0.50722 17.794 0.217396C17.5194 -0.0724282 17.0742 -0.0724653 16.7997 0.217396L8.99998 8.4504L1.20035 0.217396C0.925741 -0.0724653 0.480523 -0.0724653 0.205953 0.217396C-0.068616 0.507257 -0.0686512 0.97721 0.205953 1.26703L8.00559 9.5L0.205953 17.733C-0.0686512 18.0229 -0.0686512 18.4928 0.205953 18.7826C0.343238 18.9276 0.523203 19 0.703167 19C0.883131 19 1.06306 18.9276 1.20038 18.7826L8.99998 10.5497L16.7996 18.7826C16.9369 18.9276 17.1169 19 17.2968 19C17.4768 19 17.6567 18.9276 17.794 18.7826C18.0687 18.4928 18.0687 18.0228 17.794 17.733L9.99441 9.50004Z" fill="#339EC9"/>
</svg>
