<svg width="24" height="24" viewBox="0 0 24 24" fill="none" xmlns="http://www.w3.org/2000/svg">
    <path d="M13.2154 12L22.7483 2.46709C23.0839 2.13146 23.0839 1.58731 22.7483 1.25172C22.4127 0.916136 21.8685 0.916093 21.5329 1.25172L12 10.7847L2.46709 1.25172C2.13146 0.916093 1.58731 0.916093 1.25172 1.25172C0.916136 1.58735 0.916093 2.13151 1.25172 2.46709L10.7846 12L1.25172 21.533C0.916093 21.8686 0.916093 22.4127 1.25172 22.7483C1.41951 22.9161 1.63947 23 1.85943 23C2.07938 23 2.2993 22.9161 2.46713 22.7483L12 13.2154L21.5329 22.7483C21.7007 22.9161 21.9206 23 22.1406 23C22.3605 23 22.5804 22.9161 22.7483 22.7483C23.0839 22.4127 23.0839 21.8685 22.7483 21.533L13.2154 12Z" fill="#FF103B" stroke="#FF103B"/>
</svg>
