<svg width="36" height="33" viewBox="0 0 36 33" fill="none" xmlns="http://www.w3.org/2000/svg">
    <path d="M35.7519 0.782837C35.7519 10.12 35.7519 19.4572 35.7519 28.7944C34.1288 28.7944 32.4969 28.7944 30.8128 28.7944C30.8128 29.9114 30.8128 30.9935 30.8128 32.1192C29.9052 31.8312 29.0413 31.6218 28.2385 31.2727C27.2262 30.8364 26.2838 30.8451 25.2715 31.2727C24.4512 31.6218 23.5786 31.8312 22.6798 32.1279C22.6798 31.0022 22.6798 29.9201 22.6798 28.8119C22.4878 28.8119 22.3395 28.8119 22.1911 28.8119C14.9482 28.8119 7.69664 28.8119 0.45377 28.8119C0.305422 28.8119 0.148348 28.8032 0 28.8032C0.00872635 19.4572 0.00872635 10.12 0.00872635 0.782837C0.122169 0.782837 0.244338 0.791563 0.357781 0.791563C12.0424 0.791563 23.7182 0.791563 35.4028 0.791563C35.5163 0.791563 35.6384 0.782837 35.7519 0.782837ZM2.1205 26.6914C8.98814 26.6914 15.8296 26.6914 22.6972 26.6914C22.6972 26.2725 22.706 25.8798 22.6885 25.4871C22.6798 25.3563 22.6274 25.2166 22.5489 25.1119C21.7635 24.0211 21.4319 22.8082 21.5628 21.4643C21.8508 18.4275 24.8701 16.2285 27.8458 16.9004C31.5719 17.7381 33.2038 21.9966 30.9873 25.0857C30.9175 25.173 30.8389 25.2864 30.8389 25.3912C30.8215 25.8187 30.8302 26.2463 30.8302 26.6827C31.7901 26.6827 32.7151 26.6827 33.6401 26.6827C33.6401 18.7417 33.6401 10.8181 33.6401 2.89461C23.1248 2.89461 12.6358 2.89461 2.12923 2.89461C2.1205 10.8356 2.1205 18.7504 2.1205 26.6914ZM26.755 18.89C25.0359 18.8987 23.6135 20.3299 23.631 22.0228C23.6484 23.7331 25.0883 25.1555 26.7812 25.1468C28.5003 25.1294 29.9052 23.7157 29.9052 22.0053C29.8878 20.2862 28.4741 18.8813 26.755 18.89ZM24.8003 29.2308C25.3588 29.0475 25.8998 28.8642 26.4409 28.7159C26.6416 28.6635 26.8772 28.6635 27.0692 28.7159C27.6102 28.8642 28.1425 29.0475 28.6923 29.222C28.6923 28.4192 28.6923 27.66 28.6923 26.8659C27.3746 27.3546 26.0918 27.3371 24.7916 26.8659C24.8003 27.66 24.8003 28.4279 24.8003 29.2308Z" fill="#339EC9"/>
    <path d="M29.4606 6.54224C29.4606 7.23162 29.4606 7.88609 29.4606 8.57548C21.7466 8.57548 14.0412 8.57548 6.31836 8.57548C6.31836 7.90355 6.31836 7.24034 6.31836 6.54224C14.015 6.54224 21.7204 6.54224 29.4606 6.54224Z" fill="#339EC9"/>
    <path d="M29.4519 11.4115C29.4519 12.1009 29.4519 12.7728 29.4519 13.4535C21.729 13.4535 14.0324 13.4535 6.30957 13.4535C6.30957 12.7728 6.30957 12.1009 6.30957 11.4115C14.0149 11.4115 21.7203 11.4115 29.4519 11.4115Z" fill="#339EC9"/>
    <path d="M6.30957 18.3141C6.30957 17.6247 6.30957 16.9528 6.30957 16.2721C10.1666 16.2721 14.0062 16.2721 17.8633 16.2721C17.8633 16.9528 17.8633 17.6247 17.8633 18.3141C14.0237 18.3141 10.1841 18.3141 6.30957 18.3141Z" fill="#339EC9"/>
</svg>
