<svg width="24" height="34" viewBox="0 0 24 34" fill="none" xmlns="http://www.w3.org/2000/svg">
    <path d="M0 33.4481C0 24.3378 0 15.2275 0 6.09972C6.90255 4.06648 13.7876 2.04197 20.7076 0C20.7076 1.97216 20.7076 3.89195 20.7076 5.85538C21.6937 5.85538 22.6623 5.85538 23.6484 5.85538C23.6484 15.0791 23.6484 24.268 23.6484 33.4481C15.7685 33.4481 7.88862 33.4481 0 33.4481ZM1.98961 7.84499C1.98961 15.7423 1.98961 23.6048 1.98961 31.4585C8.56928 31.4585 15.114 31.4585 21.6675 31.4585C21.6675 23.5786 21.6675 15.7249 21.6675 7.84499C15.1053 7.84499 8.56055 7.84499 1.98961 7.84499ZM18.7268 2.63536C15.1228 3.69997 11.5711 4.74714 8.02824 5.78557C11.5101 5.85538 14.9657 5.85538 18.4301 5.85538C18.465 5.85538 18.5086 5.86411 18.526 5.85538C18.5959 5.7943 18.718 5.73321 18.718 5.6634C18.7355 4.67733 18.7268 3.69125 18.7268 2.63536Z" fill="#339EC9"/>
    <path d="M19.7043 27.5665C19.7043 28.2036 19.7043 28.8318 19.7043 29.4863C14.451 29.4863 9.21518 29.4863 3.96191 29.4863C3.96191 28.8493 3.96191 28.221 3.96191 27.5665C9.19773 27.5665 14.4423 27.5665 19.7043 27.5665Z" fill="#339EC9"/>
    <path d="M3.95312 25.5333C3.95312 24.8876 3.95312 24.2593 3.95312 23.6135C5.25335 23.6135 6.54485 23.6135 7.86253 23.6135C7.86253 24.2418 7.86253 24.8788 7.86253 25.5333C6.57103 25.5333 5.27953 25.5333 3.95312 25.5333Z" fill="#339EC9"/>
    <path d="M15.7949 23.5961C17.1039 23.5961 18.3866 23.5961 19.6956 23.5961C19.6956 24.2418 19.6956 24.8788 19.6956 25.5333C18.4041 25.5333 17.1126 25.5333 15.7949 25.5333C15.7949 24.905 15.7949 24.268 15.7949 23.5961Z" fill="#339EC9"/>
    <path d="M11.8327 21.0392C8.89193 21.0392 6.49219 18.6482 6.49219 15.6987C6.49219 12.7579 8.88321 10.3582 11.8327 10.3582C14.7735 10.3582 17.1732 12.7492 17.1732 15.6987C17.1732 18.6395 14.7735 21.0392 11.8327 21.0392ZM11.8327 12.5485C10.0962 12.5485 8.67378 13.9621 8.67378 15.7074C8.67378 17.444 10.0874 18.8663 11.8327 18.8663C13.5693 18.8663 14.9917 17.4527 14.9917 15.7074C14.9917 13.9621 13.5693 12.5485 11.8327 12.5485Z" fill="#339EC9"/>
</svg>
