<svg width="26" height="65" viewBox="0 0 26 65" fill="none" xmlns="http://www.w3.org/2000/svg">
    <path d="M23.8629 61.8194C24.5914 61.8194 25.2488 61.8194 25.9951 61.8194C25.9951 61.5706 25.9951 61.3397 25.9951 61.1087C25.9951 41.1367 25.9951 21.1469 25.9951 1.1749C25.9951 0.233159 25.0178 -0.31767 24.1649 0.197622C24.0406 0.268697 23.934 0.464152 23.8806 0.62407C23.8273 0.783988 23.8629 0.979444 23.8629 1.15713C23.8629 21.1647 23.8629 41.1544 23.8629 61.162C23.8629 61.3397 23.8629 61.5351 23.8629 61.8194Z" fill="black"/>
    <path d="M18.6744 61.8194C19.4029 61.8194 20.0604 61.8194 20.8066 61.8194C20.8066 61.5884 20.8066 61.3574 20.8066 61.1442C20.8066 42.0074 20.8066 22.8527 20.8066 3.71584C20.8066 2.80964 19.8294 2.29435 18.9765 2.7741C18.8521 2.84518 18.7455 3.02287 18.6922 3.18278C18.6389 3.3427 18.6744 3.52039 18.6744 3.69808C18.6744 22.8705 18.6744 42.0251 18.6744 61.1975C18.6744 61.3574 18.6744 61.5529 18.6744 61.8194Z" fill="black"/>
    <path d="M24.2539 36.7477C24.2539 36.0548 24.2539 35.3973 24.2539 34.7043C22.939 34.7043 21.6419 34.7043 20.3093 34.7043C20.3093 35.3618 20.3093 36.037 20.3093 36.7477C21.6064 36.7477 22.9213 36.7477 24.2539 36.7477Z" fill="black"/>
    <path d="M20.3093 53.3259C20.3093 54.0189 20.3093 54.6586 20.3093 55.3693C21.6241 55.3693 22.9213 55.3693 24.2539 55.3693C24.2539 54.7119 24.2539 54.0367 24.2539 53.3259C22.939 53.3259 21.6241 53.3259 20.3093 53.3259Z" fill="black"/>
    <path d="M24.2539 27.135C24.2539 26.442 24.2539 25.7845 24.2539 25.0916C22.939 25.0916 21.6419 25.0916 20.3093 25.0916C20.3093 25.749 20.3093 26.4242 20.3093 27.135C21.6064 27.135 22.9213 27.135 24.2539 27.135Z" fill="black"/>
    <path d="M20.3093 43.7131C20.3093 44.4061 20.3093 45.0458 20.3093 45.7565C21.6241 45.7565 22.9213 45.7565 24.2539 45.7565C24.2539 45.0991 24.2539 44.4239 24.2539 43.7131C22.939 43.7131 21.6241 43.7131 20.3093 43.7131Z" fill="black"/>
    <path d="M24.2539 10.7344C24.2539 10.0415 24.2539 9.38402 24.2539 8.69104C22.939 8.69104 21.6419 8.69104 20.3093 8.69104C20.3093 9.34848 20.3093 10.0237 20.3093 10.7344C21.6064 10.7344 22.9213 10.7344 24.2539 10.7344Z" fill="black"/>
    <path d="M24.9111 4.63983C24.9111 3.94685 24.9111 3.28941 24.9111 2.59644C17.164 2.59644 9.50569 2.59644 1.68747 2.59644C1.68747 3.25388 1.68747 3.92909 1.68747 4.63983C9.34577 4.63983 17.0396 4.63983 24.9111 4.63983Z" fill="black"/>
    <path d="M24.9111 9.01093C24.9111 8.31795 24.9111 7.66051 24.9111 6.96753C17.164 6.96753 9.50569 6.96753 1.68747 6.96753C1.68747 7.62497 1.68747 8.30018 1.68747 9.01093C9.34577 9.01093 17.0396 9.01093 24.9111 9.01093Z" fill="black"/>
    <path d="M20.3093 15.4609C20.3093 16.1539 20.3093 16.7936 20.3093 17.5043C21.6241 17.5043 22.9213 17.5043 24.2539 17.5043C24.2539 16.8469 24.2539 16.1717 24.2539 15.4609C22.939 15.4609 21.6241 15.4609 20.3093 15.4609Z" fill="black"/>
    <path d="M5.66799 56.862C6.12997 57.3239 6.57419 57.7682 7.03618 58.2302C11.4428 53.8235 15.8494 49.3991 20.3271 44.9214C19.8829 44.4772 19.4387 44.033 18.959 43.5532C14.5346 47.9776 10.1279 52.402 5.66799 56.862Z" fill="black"/>
    <path d="M7.03598 43.109C6.574 43.571 6.12978 44.0152 5.6678 44.4772C10.0744 48.8838 14.4811 53.2905 18.9765 57.7682C19.4208 57.324 19.865 56.8797 20.3447 56.4C15.9026 51.9756 11.4959 47.5689 7.03598 43.109Z" fill="black"/>
    <path d="M5.66799 30.2799C6.12997 30.7419 6.57419 31.1861 7.03618 31.6481C11.4428 27.2415 15.8494 22.8349 20.3271 18.3394C19.8829 17.8952 19.4387 17.4509 18.959 16.9712C14.5346 21.3956 10.1279 25.82 5.66799 30.2799Z" fill="black"/>
    <path d="M7.03598 16.5448C6.574 17.0068 6.12978 17.451 5.6678 17.913C10.0744 22.3196 14.4811 26.7263 18.9765 31.204C19.4208 30.7597 19.865 30.3155 20.3447 29.8358C15.9026 25.3936 11.4959 20.987 7.03598 16.5448Z" fill="black"/>
    <path d="M2.13195 61.8194C1.40344 61.8194 0.745994 61.8194 -0.000290394 61.8194C-0.000290394 61.5706 -0.000290394 61.3397 -0.000290394 61.1087C-0.000290394 41.1367 -0.000290394 21.1469 -0.000290394 1.1749C-0.000290394 0.233159 0.976988 -0.31767 1.82988 0.197622C1.95427 0.268697 2.06088 0.464152 2.11418 0.62407C2.16749 0.783988 2.13195 0.979444 2.13195 1.15713C2.13195 21.1647 2.13195 41.1544 2.13195 61.162C2.13195 61.3397 2.13195 61.5351 2.13195 61.8194Z" fill="black"/>
    <path d="M7.33801 61.8194C6.60949 61.8194 5.95205 61.8194 5.20576 61.8194C5.20576 61.5884 5.20576 61.3574 5.20576 61.1442C5.20576 42.0074 5.20576 22.8527 5.20576 3.71584C5.20576 2.80964 6.18304 2.29435 7.03594 2.7741C7.16032 2.84518 7.26693 3.02287 7.32024 3.18278C7.37354 3.3427 7.33801 3.52039 7.33801 3.69808C7.33801 22.8705 7.33801 42.0251 7.33801 61.1975C7.33801 61.3574 7.33801 61.5529 7.33801 61.8194Z" fill="black"/>
    <path d="M1.7409 36.7477C1.7409 36.0548 1.7409 35.3973 1.7409 34.7043C3.05578 34.7043 4.3529 34.7043 5.68555 34.7043C5.68555 35.3618 5.68555 36.037 5.68555 36.7477C4.38843 36.7477 3.07355 36.7477 1.7409 36.7477Z" fill="black"/>
    <path d="M5.68555 53.3259C5.68555 54.0189 5.68555 54.6586 5.68555 55.3693C4.37066 55.3693 3.07355 55.3693 1.7409 55.3693C1.7409 54.7119 1.7409 54.0367 1.7409 53.3259C3.05578 53.3259 4.37066 53.3259 5.68555 53.3259Z" fill="black"/>
    <path d="M1.7409 27.135C1.7409 26.442 1.7409 25.7845 1.7409 25.0916C3.05578 25.0916 4.3529 25.0916 5.68555 25.0916C5.68555 25.749 5.68555 26.4242 5.68555 27.135C4.38843 27.135 3.07355 27.135 1.7409 27.135Z" fill="black"/>
    <path d="M5.68555 43.7131C5.68555 44.4061 5.68555 45.0458 5.68555 45.7565C4.37066 45.7565 3.07355 45.7565 1.7409 45.7565C1.7409 45.0991 1.7409 44.4239 1.7409 43.7131C3.05578 43.7131 4.37066 43.7131 5.68555 43.7131Z" fill="black"/>
    <path d="M1.7409 10.7344C1.7409 10.0415 1.7409 9.38402 1.7409 8.69104C3.05578 8.69104 4.3529 8.69104 5.68555 8.69104C5.68555 9.34848 5.68555 10.0237 5.68555 10.7344C4.38843 10.7344 3.07355 10.7344 1.7409 10.7344Z" fill="black"/>
    <path d="M5.68555 15.4609C5.68555 16.1539 5.68555 16.7936 5.68555 17.5043C4.37066 17.5043 3.07355 17.5043 1.7409 17.5043C1.7409 16.8469 1.7409 16.1717 1.7409 15.4609C3.05578 15.4609 4.37066 15.4609 5.68555 15.4609Z" fill="black"/>
    <path d="M18.5858 62.9567C18.5858 63.6674 18.5858 64.3071 18.5858 65.0001C21.0378 65.0001 23.4899 65.0001 25.9775 65.0001C25.9775 64.3426 25.9775 63.6674 25.9775 62.9567C23.5255 62.9567 21.0912 62.9567 18.5858 62.9567Z" fill="black"/>
    <path d="M0.0174074 62.9567C0.0174074 63.6674 0.0174074 64.3071 0.0174074 65.0001C2.46949 65.0001 4.92156 65.0001 7.40918 65.0001C7.40918 64.3426 7.40918 63.6674 7.40918 62.9567C4.9571 62.9567 2.52279 62.9567 0.0174074 62.9567Z" fill="black"/>
</svg>
