<svg width="55" height="55" viewBox="0 0 55 55" fill="none" xmlns="http://www.w3.org/2000/svg">
    <path d="M4.91602 1.02417C19.9661 1.02417 34.926 1.02417 49.9159 1.02417C49.9159 2.21194 49.9159 3.3546 49.9159 4.60251C49.7204 4.60251 49.525 4.60251 49.3295 4.60251C34.7906 4.60251 20.2668 4.60251 5.72791 4.60251C4.96112 4.60251 4.93105 4.57244 4.93105 3.80565C4.91602 2.88851 4.91602 1.98641 4.91602 1.02417Z" fill="black"/>
    <path d="M49.9317 48.3094C48.744 47.2419 47.6615 46.2797 46.5789 45.3024C32.9722 33.109 19.3805 20.9156 5.75881 8.73717C5.15741 8.19591 4.76649 7.68472 4.90181 6.84276C4.96195 6.48192 4.91685 6.091 4.91685 5.59485C5.14237 5.77527 5.27769 5.89555 5.42804 6.03086C12.8253 12.6613 20.2375 19.2918 27.6348 25.9373C34.7915 32.3422 41.9331 38.7621 49.0898 45.152C49.6912 45.6933 50.0821 46.2045 49.9468 47.0464C49.8866 47.4073 49.9317 47.7832 49.9317 48.3094Z" fill="black"/>
    <path d="M4.91651 52.3087C4.30007 52.3087 3.74378 52.3087 3.1123 52.3087C3.1123 52.0982 3.1123 51.9028 3.1123 51.7073C3.1123 34.8079 3.1123 17.8935 3.1123 0.994146C3.1123 0.197289 3.93923 -0.268797 4.66091 0.167219C4.76616 0.227359 4.85637 0.392744 4.90147 0.528059C4.94658 0.663375 4.91651 0.82876 4.91651 0.97911C4.91651 17.9086 4.91651 34.823 4.91651 51.7524C4.91651 51.9028 4.91651 52.0682 4.91651 52.3087Z" fill="black"/>
    <path d="M51.7358 52.3087C51.1194 52.3087 50.5631 52.3087 49.9316 52.3087C49.9316 52.0982 49.9316 51.9028 49.9316 51.7073C49.9316 34.8079 49.9316 17.8935 49.9316 0.994146C49.9316 0.197289 50.7586 -0.268797 51.4803 0.167219C51.5855 0.227359 51.6757 0.392744 51.7208 0.528059C51.7659 0.663375 51.7358 0.82876 51.7358 0.97911C51.7358 17.9086 51.7358 34.823 51.7358 51.7524C51.7358 51.9028 51.7358 52.0682 51.7358 52.3087Z" fill="black"/>
    <path d="M45.0298 49.9182C44.4134 49.9182 43.8571 49.9182 43.2256 49.9182C43.2256 49.7378 43.2256 49.5423 43.2256 49.3619C43.2256 33.8307 43.2256 18.2995 43.2256 2.76831C43.2256 2.03159 44.0525 1.61061 44.7742 2.00152C44.8794 2.06166 44.9696 2.21201 45.0148 2.33229C45.0599 2.45258 45.0298 2.60293 45.0298 2.73824C45.0298 18.2845 45.0298 33.8307 45.0298 49.392C45.0298 49.5423 45.0298 49.7077 45.0298 49.9182Z" fill="black"/>
    <path d="M11.6069 49.9182C10.9905 49.9182 10.4342 49.9182 9.80273 49.9182C9.80273 49.7378 9.80273 49.5423 9.80273 49.3619C9.80273 33.8307 9.80273 18.2995 9.80273 2.76831C9.80273 2.03159 10.6297 1.61061 11.3513 2.00152C11.4566 2.06166 11.5468 2.21201 11.5919 2.33229C11.637 2.45258 11.6069 2.60293 11.6069 2.73824C11.6069 18.2845 11.6069 33.8307 11.6069 49.392C11.6069 49.5423 11.6069 49.7077 11.6069 49.9182Z" fill="black"/>
    <path d="M28.927 25.2156C29.3781 25.6215 29.784 25.9974 30.2501 26.4033C22.8078 33.0639 12.3885 42.4157 4.91607 49.1213C4.91607 48.2793 4.886 47.5576 4.9311 46.851C4.94614 46.6856 5.15663 46.5202 5.30698 46.3849C9.44161 42.6863 13.5762 38.9726 17.6958 35.274C20.2518 32.9887 25.8448 27.952 28.4008 25.6666C28.5511 25.5163 28.7165 25.396 28.927 25.2156Z" fill="black"/>
    <path d="M49.9316 6.37671C49.9316 7.17357 49.9617 7.83511 49.9165 8.48161C49.9015 8.6921 49.7361 8.91763 49.5707 9.06798C44.2634 13.8491 38.9259 18.6152 33.6186 23.3813C32.3857 24.4789 31.1679 25.5764 29.8899 26.7191C29.4539 26.3282 29.0479 25.9674 28.5518 25.5313C35.6633 19.1715 42.7448 12.8267 49.9316 6.37671Z" fill="black"/>
    <path d="M4.93164 20.7803C4.93164 20.1939 4.93164 19.6376 4.93164 19.0513C7.15683 19.0513 9.36698 19.0513 11.6072 19.0513C11.6072 19.6076 11.6072 20.1789 11.6072 20.7803C9.41208 20.7803 7.20193 20.7803 4.93164 20.7803Z" fill="black"/>
    <path d="M49.9158 19.0513C49.9158 19.6527 49.9158 20.209 49.9158 20.7803C47.6906 20.7803 45.4805 20.7803 43.2402 20.7803C43.2402 20.224 43.2402 19.6527 43.2402 19.0513C45.4353 19.0513 47.6455 19.0513 49.9158 19.0513Z" fill="black"/>
    <path d="M11.6369 34.808C11.6369 35.3943 11.6369 35.9356 11.6369 36.537C9.42673 36.537 7.20154 36.537 4.94629 36.537C4.94629 35.9807 4.94629 35.4094 4.94629 34.808C7.17147 34.808 9.39666 34.808 11.6369 34.808Z" fill="black"/>
    <path d="M49.9011 34.808C49.9011 35.4094 49.9011 35.9657 49.9011 36.537C47.676 36.537 45.4658 36.537 43.2256 36.537C43.2256 35.9807 43.2256 35.4094 43.2256 34.808C45.4357 34.808 47.6459 34.808 49.9011 34.808Z" fill="black"/>
    <path d="M7.59277 52.7448C7.59277 52.1584 7.59277 51.6021 7.59277 51.0157C9.66761 51.0157 11.7274 51.0157 13.8173 51.0157C13.8173 51.572 13.8173 52.1434 13.8173 52.7448C11.7875 52.7448 9.71271 52.7448 7.59277 52.7448Z" fill="black"/>
    <path d="M41.0156 52.7448C41.0156 52.1584 41.0156 51.6021 41.0156 51.0157C43.0905 51.0157 45.1503 51.0157 47.2401 51.0157C47.2401 51.572 47.2401 52.1434 47.2401 52.7448C45.1954 52.7448 43.1356 52.7448 41.0156 52.7448Z" fill="black"/>
    <path d="M6.25457 53.271C6.25457 53.8724 6.25457 54.4137 6.25457 55C4.17974 55 2.10491 55 0 55C0 54.4437 0 53.8724 0 53.271C2.07484 53.271 4.13463 53.271 6.25457 53.271Z" fill="black"/>
    <path d="M54.8622 53.271C54.8622 53.8724 54.8622 54.4287 54.8622 55C52.7874 55 50.7276 55 48.6377 55C48.6377 54.4437 48.6377 53.8724 48.6377 53.271C50.6825 53.271 52.7423 53.271 54.8622 53.271Z" fill="black"/>
</svg>
