<svg width="43" height="43" viewBox="0 0 43 43" fill="none" xmlns="http://www.w3.org/2000/svg">
    <path d="M15.9235 2.87996V16.0652H2.45362V2.87996H15.9235ZM16.6337 0.42627H1.74347C0.78781 0.42627 0 1.20113 0 2.16975V16.7884C0 17.7441 0.774857 18.5319 1.74347 18.5319H16.6337C17.5894 18.5319 18.3772 17.7571 18.3772 16.7884V2.16975C18.3772 1.20118 17.6024 0.42627 16.6337 0.42627Z" fill="black"/>
    <path d="M40.1901 2.45369V15.639H26.7202V2.45369H40.1901ZM40.9003 0H26.0101C25.0544 0 24.2666 0.774858 24.2666 1.74348V16.3622C24.2666 17.3178 25.0415 18.1057 26.0101 18.1057H40.9003C41.856 18.1057 42.6438 17.3308 42.6438 16.3622V1.74348C42.6309 0.787811 41.856 0 40.9003 0Z" fill="black"/>
    <path d="M15.9235 26.7191V39.9044H2.45362V26.7191H15.9235ZM16.6337 24.2654H1.74347C0.78781 24.2654 0 25.0402 0 26.0089V40.6276C0 41.5832 0.774857 42.371 1.74347 42.371H16.6337C17.5894 42.371 18.3772 41.5962 18.3772 40.6276V25.9959C18.3772 25.0402 17.6024 24.2654 16.6337 24.2654Z" fill="black"/>
    <path d="M40.1901 26.2928V39.4781H26.7202V26.2928H40.1901ZM40.9003 23.8391H26.0101C25.0544 23.8391 24.2666 24.614 24.2666 25.5826V40.2013C24.2666 41.157 25.0415 41.9448 26.0101 41.9448H40.9003C41.856 41.9448 42.6438 41.1699 42.6438 40.2013V25.5826C42.6309 24.614 41.856 23.8391 40.9003 23.8391Z" fill="black"/>
</svg>
