<svg width="37" height="54" viewBox="0 0 37 54" fill="none" xmlns="http://www.w3.org/2000/svg">
    <path d="M36.0263 0.671143H0.973684C0.436422 0.671143 0 1.10756 0 1.64483V50.329C0 50.8676 0.436422 51.3027 0.973684 51.3027H6.81579C6.27853 51.3027 5.84211 51.7378 5.84211 52.2764C5.84211 52.815 6.27853 53.2501 6.81579 53.2501H10.7105C11.2478 53.2501 11.6842 52.815 11.6842 52.2764C11.6842 51.7378 11.2478 51.3027 10.7105 51.3027H26.2895C25.7509 51.3027 25.3158 51.7378 25.3158 52.2764C25.3158 52.815 25.7509 53.2501 26.2895 53.2501H30.1842C30.7228 53.2501 31.1579 52.815 31.1579 52.2764C31.1579 51.7378 30.7228 51.3027 30.1842 51.3027H36.0263C36.5649 51.3027 37 50.8676 37 50.329V1.64483C37 1.10756 36.5649 0.671143 36.0263 0.671143ZM35.0526 49.3554H1.94737V2.61851H35.0526V49.3554Z" fill="black"/>
    <path d="M18.4998 47.408C26.5531 47.408 33.1051 40.8561 33.1051 32.8028C33.1051 24.7495 26.5531 18.1975 18.4998 18.1975C10.4465 18.1975 3.89453 24.7495 3.89453 32.8028C3.89453 40.8561 10.4465 47.408 18.4998 47.408ZM5.8419 32.8028C5.8419 32.4737 5.86624 32.1512 5.89145 31.8291H13.6314V33.7765H5.89145C5.86624 33.4544 5.8419 33.1318 5.8419 32.8028ZM6.81862 27.9344H13.6314V29.8817H6.19535C6.35488 29.2119 6.55744 28.5585 6.81869 27.9344H6.81862ZM21.4205 27.9344V29.8817H15.5784V27.9344H21.4205ZM15.5784 25.987V24.0396H21.4205V25.987H15.5784ZM30.8035 29.8817H23.3675V27.9344H30.1803C30.4424 28.5586 30.6441 29.2118 30.8036 29.8817H30.8035ZM31.1569 32.8028C31.1569 33.1318 31.1326 33.4544 31.1074 33.7765H23.3674V31.8291H31.1074C31.1326 32.1512 31.1569 32.4737 31.1569 32.8028ZM30.1802 37.6712H23.3674V35.7238H30.8035C30.6439 36.3937 30.4422 37.047 30.1801 37.6712H30.1802ZM15.5783 37.6712V35.7238H21.4204V37.6712H15.5783ZM21.4204 39.6186V41.5659H15.5783V39.6186H21.4204ZM15.5783 33.7765V31.8291H21.4204V33.7765H15.5783ZM13.6309 35.7238V37.6712H6.81812C6.55731 37.047 6.35475 36.3937 6.19479 35.7238H13.6309ZM13.6309 39.6186V41.5659H9.38664C8.81331 40.97 8.29908 40.3175 7.85 39.6186H13.6309ZM13.6309 43.5133V44.4839C12.9845 44.2144 12.3721 43.8824 11.7848 43.5133H13.6309ZM15.5783 45.1072V43.5133H21.4204V45.1072C20.4806 45.3302 19.5061 45.4606 18.4993 45.4606C17.4926 45.4606 16.518 45.3302 15.5783 45.1072ZM23.3677 43.5133H25.2139C24.6257 43.8823 24.0142 44.2144 23.3677 44.4839V43.5133ZM27.612 41.5659H23.3677V39.6186H29.1485C28.6995 40.3175 28.1857 40.97 27.6119 41.5659H27.612ZM29.1486 25.987H23.3679V24.0396H27.6121C28.1859 24.6356 28.6997 25.288 29.1488 25.987H29.1486ZM23.3679 22.0922V21.1216C24.0142 21.3924 24.6266 21.7232 25.214 22.0922H23.3679ZM21.4205 20.4983V22.0922H15.5784V20.4983C16.5182 20.2753 17.4927 20.1449 18.4994 20.1449C19.5062 20.1449 20.4807 20.2753 21.4205 20.4983ZM13.631 22.0922H11.7849C12.3722 21.7232 12.9846 21.392 13.631 21.1216V22.0922ZM9.38676 24.0396H13.631V25.987H7.85023C8.29926 25.288 8.81304 24.6355 9.38687 24.0396H9.38676Z" fill="black"/>
    <path d="M8.76295 14.3028C11.4475 14.3028 13.6314 12.1189 13.6314 9.43434C13.6314 6.74975 11.4475 4.56592 8.76295 4.56592C6.07837 4.56592 3.89453 6.74975 3.89453 9.43434C3.89453 12.1189 6.07837 14.3028 8.76295 14.3028ZM7.78927 6.69233V9.43434C7.78927 9.9716 8.22569 10.408 8.76295 10.408C9.30021 10.408 9.73664 9.9716 9.73664 9.43434V6.69233C10.8681 7.09658 11.684 8.16632 11.684 9.43434C11.684 11.0449 10.3735 12.3554 8.76295 12.3554C7.15242 12.3554 5.8419 11.0449 5.8419 9.43434C5.8419 8.16677 6.65779 7.09661 7.78927 6.69233Z" fill="black"/>
    <path d="M26.2891 6.51329H31.1575V11.3817C31.1575 11.919 31.5927 12.3554 32.1312 12.3554C32.6698 12.3554 33.1049 11.919 33.1049 11.3817V5.5396C33.1049 5.00234 32.6698 4.56592 32.1312 4.56592H26.2891C25.7505 4.56592 25.3154 5.00234 25.3154 5.5396C25.3154 6.07686 25.7505 6.51329 26.2891 6.51329Z" fill="black"/>
    <path d="M20.4475 14.3028C21.7485 14.3028 22.9713 13.7955 23.8894 12.8774C24.8087 11.9572 25.3159 10.7353 25.3159 9.43434C25.3159 8.13339 24.8087 6.91144 23.8894 5.99128C22.9704 5.0715 21.7486 4.56592 20.4475 4.56592C19.1478 4.56592 17.9246 5.07232 17.0057 5.99128C16.0855 6.9115 15.5791 8.13339 15.5791 9.43434C15.5791 10.7353 16.0864 11.9572 17.0045 12.8762C17.9247 13.7955 19.1466 14.3028 20.4475 14.3028ZM18.3823 7.36835C18.9335 6.81718 19.6668 6.51333 20.4475 6.51333C21.2283 6.51333 21.9615 6.81718 22.5127 7.36835C23.0648 7.92039 23.3686 8.65461 23.3686 9.43434C23.3686 9.87641 23.2617 10.2989 23.0756 10.6867L21.1361 8.74619C20.7553 8.36541 20.1398 8.36541 19.7594 8.74619C19.3787 9.12698 19.3787 9.74248 19.7594 10.1228L21.6895 12.0528C20.6075 12.5414 19.2457 12.3636 18.3828 11.4986C17.8303 10.9483 17.5265 10.2141 17.5265 9.43428C17.5265 8.65445 17.8303 7.92034 18.3824 7.36829L18.3823 7.36835Z" fill="black"/>
</svg>
