<svg width="68" height="44" viewBox="0 0 68 44" fill="none" xmlns="http://www.w3.org/2000/svg">
    <path d="M68 37.2046C67.6996 38.5562 67.2062 39.8005 66.3051 40.8732C64.2241 43.3404 60.577 44.0269 57.7451 42.4822C57.3589 42.2677 56.8869 42.139 56.4364 42.139C45.3876 42.1175 34.3604 42.1175 23.3116 42.139C22.904 42.139 22.432 42.2677 22.0673 42.4608C19.407 43.9196 16.0817 43.4477 13.8505 41.2808C11.6622 39.1569 11.1473 35.7886 12.6062 33.1069C14.0865 30.3608 16.8755 28.9878 19.9219 29.4812C20.0935 29.5027 20.2652 29.5241 20.5441 29.567C20.3081 29.2881 20.1579 29.0736 19.9863 28.8805C13.7861 21.3716 7.58595 13.8843 1.40724 6.35395C0.892349 5.71033 0.398911 4.9809 0.141465 4.23002C-0.33052 2.7497 0.420365 1.22648 1.77196 0.45414C3.08064 -0.296744 4.83986 -0.125114 5.84819 1.03339C7.60741 3.0286 9.28081 5.08817 10.9542 7.12629C16.2319 13.5195 21.531 19.9128 26.8086 26.306C26.873 26.3918 26.9588 26.4777 27.0875 26.6064C28.4606 25.4908 30.1125 25.9199 31.7001 25.7911C31.7001 25.3835 31.7001 24.9973 31.7001 24.5683C31.5928 24.5468 31.4855 24.4825 31.3568 24.461C29.4474 24.1821 28.2675 23.0021 28.2031 21.0498C28.1387 19.4193 28.1602 17.7674 28.2889 16.1369C28.4606 13.9272 30.4772 12.0821 32.687 12.1679C34.8109 12.2538 36.9134 12.5541 39.0158 12.7687C41.6332 13.0476 44.2506 13.3908 46.868 13.6268C49.8071 13.9057 51.5234 15.7293 51.5234 18.6899C51.5234 19.4193 51.5234 20.1488 51.5234 20.8782C51.502 22.852 50.322 24.1606 48.3697 24.4181C48.241 24.4395 48.1123 24.461 47.9621 24.5039C47.9621 24.9115 47.9621 25.2977 47.9621 25.7697C48.6701 25.7697 49.3781 25.7911 50.086 25.7697C51.502 25.7482 52.5961 26.306 53.4328 27.4645C53.9692 28.194 54.527 28.9234 55.0633 29.6528C55.7928 30.6183 56.5866 30.7899 57.6592 30.1892C59.2039 29.331 60.8773 29.0521 62.5936 29.5027C65.447 30.2535 67.2277 32.12 67.8713 35.0378C67.8927 35.1665 67.9571 35.2952 68 35.4025C68 36.0461 68 36.6253 68 37.2046ZM54.999 32.8065C44.8727 32.8065 34.8538 32.8065 25.0065 32.8065C25.2425 34.008 25.6716 35.1879 25.6501 36.3679C25.6501 37.5479 25.221 38.7493 24.985 39.8863C34.8967 39.8863 44.9371 39.8863 55.0204 39.8863C53.7546 37.5049 53.7546 35.1665 54.999 32.8065ZM39.8525 22.3156C42.5128 22.3156 45.1516 22.3156 47.8119 22.3156C48.8632 22.3156 49.3351 21.8651 49.3566 20.8568C49.3781 20.0201 49.3995 19.1834 49.3352 18.3467C49.2493 16.9522 48.4341 16.1155 47.0396 15.9653C42.4485 15.4504 37.8573 14.9355 33.2662 14.4206C31.6357 14.2275 30.4343 15.3002 30.4129 16.9522C30.3914 18.1965 30.4129 19.4193 30.4129 20.6637C30.4129 21.9509 30.8205 22.3585 32.1292 22.3585C34.7036 22.3371 37.2781 22.3156 39.8525 22.3156ZM27.1733 30.5539C26.873 30.039 26.7013 29.6314 26.4224 29.3096C19.2139 20.5349 11.9625 11.7818 4.73259 3.00715C4.56096 2.81406 4.38933 2.59953 4.17479 2.44935C3.68135 2.12754 3.145 2.14899 2.69447 2.51371C2.24394 2.89988 2.13667 3.41477 2.37267 3.95112C2.47993 4.18711 2.65157 4.40165 2.8232 4.59473C5.41911 7.727 8.01503 10.8807 10.5895 14.013C15.0304 19.3764 19.4714 24.7614 23.9123 30.1248C24.0625 30.2964 24.32 30.511 24.5345 30.511C25.3283 30.5753 26.1221 30.5539 27.1733 30.5539ZM29.3831 30.511C37.1494 30.511 44.98 30.511 52.9394 30.511C52.3601 29.7601 51.9096 29.0736 51.3304 28.4729C51.0944 28.2154 50.6224 28.0653 50.2577 28.0653C43.3495 28.0438 36.4628 28.0438 29.5547 28.0653C29.2114 28.0653 28.8896 28.194 28.5893 28.2583C28.8682 29.0307 29.1042 29.7387 29.3831 30.511ZM18.742 41.0877C21.3593 41.0877 23.5262 38.9424 23.5262 36.325C23.5262 33.7505 21.4022 31.6051 18.8063 31.5837C16.1889 31.5622 14.0221 33.6862 14.0007 36.3035C13.9577 38.9209 16.1246 41.0877 18.742 41.0877ZM65.7688 36.325C65.7688 33.6862 63.6234 31.5622 60.9846 31.5837C58.3672 31.6051 56.2862 33.7076 56.2647 36.325C56.2433 38.9424 58.3887 41.0877 61.0275 41.0877C63.6663 41.0877 65.7903 38.9638 65.7688 36.325ZM39.874 24.5254C38.694 24.5254 37.5355 24.5254 36.3556 24.5254C35.8192 24.5254 35.3043 24.5254 34.768 24.5254C34.3175 24.5254 33.9527 24.6755 33.9527 25.1904C33.9527 25.7053 34.3389 25.834 34.7894 25.834C34.9611 25.834 35.1327 25.834 35.3258 25.834C38.1577 25.834 40.9896 25.834 43.8001 25.834C44.2935 25.834 44.7869 25.877 45.2589 25.7697C45.4735 25.7268 45.7738 25.3621 45.7738 25.169C45.7738 24.9544 45.452 24.7184 45.2375 24.5683C45.0873 24.4825 44.8513 24.5254 44.6582 24.5254C43.0492 24.5254 41.4616 24.5254 39.874 24.5254Z" fill="black"/>
    <path d="M18.7635 34.2439C19.9221 34.2439 20.866 35.1879 20.866 36.3464C20.866 37.5049 19.9221 38.4489 18.7635 38.4703C17.5836 38.4918 16.6182 37.5049 16.6182 36.3249C16.6396 35.145 17.5836 34.2224 18.7635 34.2439Z" fill="black"/>
    <path d="M63.1297 36.3249C63.1512 37.5049 62.2287 38.4489 61.0702 38.4703C59.8902 38.4918 58.9033 37.5263 58.9033 36.3464C58.9033 35.1879 59.8473 34.2439 61.0058 34.2439C62.1858 34.2224 63.1297 35.145 63.1297 36.3249Z" fill="black"/>
</svg>
