<svg width="44" height="52" viewBox="0 0 44 52" fill="none" xmlns="http://www.w3.org/2000/svg">
    <path d="M14.0722 51.8415C13.9366 51.8415 13.7987 51.8226 13.6622 51.7828C12.8762 51.5568 12.4219 50.7355 12.6488 49.9494L26.1747 2.96359L16.6671 2.96314L2.90521 50.7694C2.67921 51.555 1.85881 52.0124 1.07183 51.7823C0.285785 51.5563 -0.168511 50.735 0.0584282 49.9489L14.1293 1.07236C14.3119 0.438187 14.8927 0.00109863 15.5531 0.00109863H28.1429C28.608 0.00109863 29.0469 0.219417 29.3266 0.591427C29.606 0.962523 29.6946 1.44437 29.5662 1.89275L15.4953 50.7693C15.3086 51.418 14.7165 51.8419 14.0729 51.8419L14.0722 51.8415Z" fill="black"/>
    <path d="M42.2119 51.8411C41.5683 51.8411 40.9761 51.4181 40.7895 50.7694L26.7186 1.89173C26.4917 1.10523 26.9459 0.284802 27.732 0.0583496C28.5185 -0.168555 29.3384 0.286619 29.5654 1.0713L43.6362 49.949C43.8622 50.7351 43.4089 51.5559 42.6228 51.7824C42.4859 51.8217 42.3471 51.8411 42.212 51.8411H42.2119Z" fill="black"/>
    <path d="M24.994 10.9234H14.6258C13.8081 10.9234 13.1445 10.2603 13.1445 9.44216C13.1445 8.62448 13.8076 7.96136 14.6258 7.96136H24.994C25.8117 7.96136 26.4753 8.62447 26.4753 9.44216C26.4753 10.2603 25.8117 10.9234 24.994 10.9234Z" fill="black"/>
    <path d="M22.5878 19.8103H12.2195C11.4019 19.8103 10.7383 19.1472 10.7383 18.3295C10.7383 17.5109 11.4014 16.8483 12.2195 16.8483H22.5878C23.4055 16.8483 24.069 17.5114 24.069 18.3295C24.0686 19.1468 23.4059 19.8103 22.5878 19.8103Z" fill="black"/>
    <path d="M20.1806 28.6971H9.81231C8.99463 28.6971 8.33105 28.034 8.33105 27.2163C8.33105 26.3977 8.99416 25.735 9.81231 25.735H20.1806C20.9982 25.735 21.6618 26.3981 21.6618 27.2163C21.6618 28.0335 20.9987 28.6971 20.1806 28.6971Z" fill="black"/>
    <path d="M17.7733 37.584H7.40509C6.5874 37.584 5.92383 36.9209 5.92383 36.1028C5.92383 35.2851 6.58693 34.6219 7.40509 34.6219H17.7733C18.591 34.6219 19.2546 35.2851 19.2546 36.1028C19.2546 36.9204 18.591 37.584 17.7733 37.584Z" fill="black"/>
</svg>
