<svg xmlns="http://www.w3.org/2000/svg" display="none">

    <symbol id="location" viewBox="0 0 16 23">
        <path d="M8.01813 0H7.98175C3.58054 0 0 3.23031 0 7.20085C0 9.80352 1.31337 13.2384 3.90362 17.4103C5.82401 20.5032 7.77133 22.872 7.79084 22.8956C7.84504 22.9613 7.93048 23 8.021 23C8.02357 23 8.02621 23 8.02878 22.9999C8.12217 22.9976 8.20838 22.9544 8.2602 22.8842C8.2794 22.8579 10.2128 20.2229 12.1202 17C14.6946 12.65 16 9.35299 16 7.20085C15.9998 3.23026 12.4192 0 8.01813 0ZM11.7024 7.37682C11.7024 9.21935 10.0415 10.7183 7.99988 10.7183C5.95833 10.7183 4.29741 9.2193 4.29741 7.37682C4.29741 5.53434 5.95833 4.03538 7.99988 4.03538C10.0415 4.03538 11.7024 5.53434 11.7024 7.37682Z"/>
    </symbol>


    <symbol id="search" viewBox="0 0 22 22">
        <path fill-rule="evenodd" clip-rule="evenodd"
              d="M15.1528 8.58658C15.1528 12.213 12.2129 15.1528 8.58658 15.1528C4.96017 15.1528 2.02037 12.213 2.02037 8.58658C2.02037 4.96016 4.96017 2.02037 8.58658 2.02037C12.2129 2.02037 15.1528 4.96016 15.1528 8.58658ZM15.3306 13.902C16.4845 12.4399 17.1732 10.5937 17.1732 8.58658C17.1732 3.84434 13.3288 0 8.58658 0C3.84436 0 0 3.84434 0 8.58658C0 13.3288 3.84436 17.1732 8.58658 17.1732C10.5937 17.1732 12.44 16.4845 13.902 15.3306L20.2755 21.7041C20.67 22.0986 21.3097 22.0986 21.7041 21.7041C22.0986 21.3097 22.0986 20.67 21.7041 20.2755L15.3306 13.902Z"/>
    </symbol>

    <symbol id="phone" viewBox="0 0 19 19">
        <path fill-rule="evenodd" clip-rule="evenodd"
              d="M12.0985 14.0744C12.3836 13.7181 13.3814 12.0788 14.8782 12.5777C16.4462 13.0766 20.3663 14.4308 18.5132 16.8541C12.3123 25.2645 -6.21901 6.66192 2.12008 0.461063C4.54341 -1.32079 5.89762 2.52802 6.39654 4.09605C6.89546 5.66408 5.32742 6.59065 4.89978 6.87575C3.83066 7.87359 11.1719 15.1436 12.0985 14.0744Z"/>
    </symbol>


    <symbol id="arrow-link" viewBox="0 0 37 16">
        <path d="M36.7071 8.70711C37.0976 8.31658 37.0976 7.68342 36.7071 7.29289L30.3431 0.928932C29.9526 0.538408 29.3195 0.538408 28.9289 0.928932C28.5384 1.31946 28.5384 1.95262 28.9289 2.34315L34.5858 8L28.9289 13.6569C28.5384 14.0474 28.5384 14.6805 28.9289 15.0711C29.3195 15.4616 29.9526 15.4616 30.3431 15.0711L36.7071 8.70711ZM0 9H36V7H0V9Z"/>
    </symbol>

    <symbol id="arrow-left" viewBox="0 0 23 38">
        <path d="M21 36L3 19L21 2" stroke-width="3" stroke-linecap="round"/>
    </symbol>

    <symbol id="arrow-right" viewBox="0 0 23 38">
        <path d="M2 2L20 19L2 36" stroke-width="3" stroke-linecap="round"/>
    </symbol>

    <symbol id="arrow-bottom" viewBox="0 0 12 8">
        <path d="M11 1L6 6L1 1" stroke-width="1.5" stroke-linecap="round"/>
    </symbol>


    <symbol id="arrow-top" viewBox="0 0 24 14">
        <path d="M1 13L12 2L23 13" stroke-width="2" stroke-linecap="round"/>
    </symbol>


    <symbol id="close" viewBox="0 0 21 23">
        <path d="M11.6601 11.3694L20.7597 1.51635C21.0801 1.16945 21.0801 0.607028 20.7597 0.260174C20.4393 -0.0866802 19.9199 -0.0867246 19.5996 0.260174L10.5 10.1132L1.4004 0.260174C1.08003 -0.0867246 0.56061 -0.0867246 0.240279 0.260174C-0.080052 0.607072 -0.080093 1.1695 0.240279 1.51635L9.33986 11.3694L0.240279 21.2224C-0.080093 21.5693 -0.080093 22.1317 0.240279 22.4786C0.400445 22.652 0.610403 22.7387 0.820361 22.7387C1.03032 22.7387 1.24024 22.652 1.40044 22.4786L10.5 12.6256L19.5996 22.4786C19.7597 22.652 19.9697 22.7387 20.1796 22.7387C20.3896 22.7387 20.5995 22.652 20.7597 22.4786C21.0801 22.1317 21.0801 21.5693 20.7597 21.2224L11.6601 11.3694Z"/>
    </symbol>


    <symbol id="plus" viewBox="0 0 26 26">
        <path d="M24.9844 11.9844H14.0156V1.01562C14.0156 0.454695 13.5609 0 13 0C12.4391 0 11.9844 0.454695 11.9844 1.01562V11.9844H1.01562C0.454695 11.9844 0 12.4391 0 13C0 13.5609 0.454695 14.0156 1.01562 14.0156H11.9844V24.9844C11.9844 25.5453 12.4391 26 13 26C13.5609 26 14.0156 25.5453 14.0156 24.9844V14.0156H24.9844C25.5453 14.0156 26 13.5609 26 13C26 12.4391 25.5453 11.9844 24.9844 11.9844Z"/>
    </symbol>

    <symbol id="star" viewBox="0 0 13 13">
        <path d="M12.9661 4.91254C12.881 4.63786 12.6475 4.44277 12.3713 4.41679L8.61913 4.06127L7.13543 0.437487C7.02603 0.171911 6.77688 0 6.50005 0C6.22323 0 5.97408 0.171911 5.86468 0.438108L4.38098 4.06127L0.628233 4.41679C0.3525 4.44339 0.119615 4.63786 0.0340186 4.91254C-0.0515776 5.18723 0.0274725 5.48851 0.236057 5.67843L3.07224 8.27396L2.23591 12.1182C2.17472 12.4008 2.27985 12.693 2.5046 12.8626C2.62541 12.9536 2.76675 13 2.90928 13C3.03217 13 3.15406 12.9654 3.26346 12.8971L6.50005 10.8786L9.73545 12.8971C9.9722 13.0457 10.2706 13.0322 10.4949 12.8626C10.7198 12.6925 10.8248 12.4002 10.7636 12.1182L9.92727 8.27396L12.7635 5.67895C12.972 5.48851 13.0517 5.18775 12.9661 4.91254V4.91254Z"/>
    </symbol>

    <symbol id="star0" viewBox="0 0 14 13">
        <path d="M13.4892 5.07079L13.4894 5.07135C13.5152 5.14855 13.4938 5.23662 13.4219 5.29756L13.4215 5.29791L10.3672 7.89292L10.1344 8.09066L10.2041 8.38802L11.1047 12.232C11.1231 12.3107 11.0939 12.3979 11.0149 12.4534L11.0148 12.4534C10.9332 12.5107 10.8224 12.5154 10.7361 12.4652L10.735 12.4645L7.2507 10.446L7.0001 10.3008L6.74949 10.4459L3.26393 12.4644L3.26371 12.4646C3.22257 12.4884 3.17788 12.5 3.13307 12.5C3.08052 12.5 3.02877 12.4843 2.98411 12.453C2.90602 12.3983 2.8763 12.3117 2.89479 12.232C2.89481 12.2319 2.89483 12.2318 2.89485 12.2317L3.79538 8.38802L3.86504 8.09069L3.63234 7.89295L0.577993 5.29742L0.577036 5.29661C0.506515 5.23699 0.484638 5.14915 0.510656 5.07162C0.537404 4.99191 0.614672 4.92445 0.720849 4.91482C0.720955 4.91481 0.721061 4.9148 0.721168 4.91479L4.76179 4.55935L5.0562 4.53345L5.17546 4.26303L6.77303 0.640468C6.77307 0.640378 6.77311 0.640288 6.77315 0.640198C6.80856 0.560481 6.89396 0.5 7.00006 0.5C7.1063 0.5 7.19178 0.560644 7.22711 0.639899C7.22716 0.640013 7.22721 0.640128 7.22726 0.640242L8.82464 4.263L8.94389 4.53344L9.23832 4.55935L13.2791 4.91486L13.2794 4.91489C13.3856 4.92416 13.4628 4.99183 13.4892 5.07079Z"/>
    </symbol>


</svg>