<svg width="19" height="18" viewBox="0 0 19 18" fill="none" xmlns="http://www.w3.org/2000/svg">
    <path d="M18.8792 6.76173C18.9096 6.85465 18.9134 6.95427 18.8902 7.04926C18.867 7.14425 18.8177 7.2308 18.7479 7.29908L14.5521 11.4117L15.5438 17.195C15.5605 17.2913 15.55 17.3903 15.5134 17.4809C15.4769 17.5715 15.4158 17.65 15.337 17.7075C15.2583 17.7649 15.165 17.7991 15.0679 17.8061C14.9708 17.8131 14.8736 17.7926 14.7875 17.747L9.60211 15.0122L4.41879 17.7491C4.33268 17.7947 4.23554 17.8152 4.13841 17.8082C4.04129 17.8012 3.94806 17.767 3.8693 17.7095C3.79055 17.6521 3.72943 17.5736 3.69289 17.483C3.65634 17.3924 3.64583 17.2934 3.66254 17.1971L4.65212 11.4117L0.456296 7.29908C0.382584 7.23171 0.329685 7.14453 0.303881 7.04789C0.278078 6.95124 0.280453 6.8492 0.310726 6.75387C0.340999 6.65854 0.397897 6.57394 0.474663 6.5101C0.551429 6.44626 0.644838 6.40588 0.743796 6.39374L6.5417 5.55741L9.13545 0.290598M18.8792 6.76173C18.8494 6.66954 18.7947 6.58748 18.7211 6.52471C18.6475 6.46195 18.558 6.42095 18.4625 6.40629M18.8792 6.76173L18.404 6.91722C18.4054 6.92152 18.4056 6.92619 18.4045 6.93062C18.4034 6.93505 18.4012 6.93885 18.3982 6.9417L18.3979 6.942L14.2021 11.0547L14.015 11.238L14.0593 11.4963L15.051 17.2795L15.0511 17.2805C15.0519 17.285 15.0514 17.2897 15.0497 17.2938C15.0481 17.298 15.0454 17.3013 15.0422 17.3036C15.0391 17.3059 15.0356 17.3071 15.032 17.3074C15.0285 17.3076 15.0249 17.3069 15.0216 17.3052L15.0208 17.3047L9.83537 14.5699L9.60198 14.4468L9.36865 14.57L4.18533 17.3069L4.18471 17.3072C4.18139 17.309 4.17779 17.3097 4.17428 17.3095C4.17077 17.3092 4.16723 17.308 4.16408 17.3057C4.16092 17.3034 4.15823 17.3 4.15657 17.2959C4.15489 17.2918 4.15439 17.2871 4.15517 17.2826L4.15538 17.2814L5.14496 11.496L5.18911 11.238L5.00212 11.0547L0.806294 6.942L0.800052 6.93588L0.7936 6.92999C0.790555 6.9272 0.788158 6.9234 0.786959 6.9189C0.785756 6.9144 0.785871 6.90962 0.787274 6.9052C0.788672 6.9008 0.79122 6.89715 0.794354 6.89454C0.79747 6.89195 0.80106 6.89047 0.804654 6.89003L0.804668 6.89014L0.815181 6.88862L6.61309 6.05229L6.87386 6.01467L6.99026 5.77831L9.58377 0.511984L9.13545 0.290598M18.8792 6.76173L18.4034 6.91548C18.402 6.91123 18.3996 6.90768 18.3966 6.90511C18.3937 6.90269 18.3905 6.9012 18.3872 6.90059L18.3901 6.90102L18.4625 6.40629M18.4625 6.40629L12.6625 5.55741L10.0688 0.290598C10.0257 0.203339 9.95917 0.129897 9.87671 0.0785518C9.79426 0.0272064 9.69915 0 9.60211 0C9.50508 0 9.40997 0.0272064 9.32752 0.0785518C9.24506 0.129897 9.17854 0.203339 9.13545 0.290598M18.4625 6.40629L18.3866 6.9005L12.5901 6.05214L12.3301 6.01408L12.214 5.77831L9.62046 0.511984C9.61853 0.508059 9.61566 0.505009 9.61241 0.502987C9.60918 0.500976 9.60562 0.5 9.60211 0.5C9.59861 0.5 9.59505 0.500976 9.59182 0.502987C9.58861 0.504982 9.58578 0.507979 9.58384 0.511831L9.58401 0.511498L9.13545 0.290598" stroke="#339EC9"/>
    <path d="M9.32752 0.0785518C9.40997 0.0272064 9.50508 0 9.60211 0V15.0122L4.41879 17.7491C4.33268 17.7947 4.23554 17.8152 4.13841 17.8082C4.04129 17.8012 3.94806 17.767 3.8693 17.7095C3.79055 17.6521 3.72943 17.5736 3.69289 17.483C3.65634 17.3924 3.64583 17.2934 3.66254 17.1971L4.65212 11.4117L0.456296 7.29908C0.382584 7.23171 0.329685 7.14453 0.303881 7.04789C0.278078 6.95124 0.280453 6.8492 0.310726 6.75387C0.340999 6.65854 0.397897 6.57393 0.474663 6.5101C0.551429 6.44626 0.644838 6.40588 0.743796 6.39374L6.5417 5.55741L9.13545 0.290598C9.17854 0.203339 9.24506 0.129897 9.32752 0.0785518Z" fill="#339EC9"/>
</svg>
