<svg width="18" height="18" viewBox="0 0 18 18" fill="none" xmlns="http://www.w3.org/2000/svg">
    <path d="M17.4775 6.67285L17.4773 6.6723C17.4211 6.49829 17.2672 6.37511 17.0846 6.35865L17.0843 6.35862L11.889 5.88688L11.5917 5.85989L11.4744 5.58538L9.42048 0.777961C9.42041 0.777777 9.42033 0.777593 9.42025 0.777409C9.3472 0.60808 9.18247 0.5 9.00009 0.5C8.81785 0.5 8.65316 0.607927 8.58004 0.777986C8.57998 0.778123 8.57992 0.778259 8.57986 0.778396L6.52576 5.5854L6.40847 5.8599L6.11119 5.88688L0.915889 6.35855C0.915809 6.35855 0.915729 6.35856 0.915648 6.35857C0.733055 6.37554 0.579403 6.49841 0.522596 6.67311C0.465722 6.84802 0.518483 7.03838 0.655581 7.15801L0.65653 7.15884L4.58356 10.6029L4.80737 10.7992L4.74147 11.0895L3.5836 16.1899C3.58358 16.19 3.58356 16.1901 3.58354 16.1901C3.5428 16.3709 3.61285 16.5552 3.76074 16.6621C3.84236 16.7211 3.9355 16.7498 4.02824 16.7498C4.10776 16.7498 4.18785 16.7286 4.26192 16.6842L4.26214 16.6841L8.74358 14.0057L9.00014 13.8524L9.25667 14.0057L13.7365 16.6841L13.7376 16.6848C13.8931 16.7784 14.0894 16.7703 14.238 16.6626L14.238 16.6626C14.3868 16.5547 14.4564 16.3699 14.4159 16.1904L17.4775 6.67285ZM17.4775 6.67285C17.5342 6.84761 17.4817 7.03803 17.3433 7.15914L17.3429 7.15949L13.4158 10.6028L13.192 10.7991L13.2579 11.0895L14.4158 16.1901L17.4775 6.67285Z" stroke="#FFC107"/>
</svg>
